<svg xmlns="http://www.w3.org/2000/svg" viewBox="0 0 500 500"><g id="freepik--background-complete--inject-253"><path d="M319.23,249.81l-122.87-1.15-37.24-.18-10.12,0-2.63,0a4.72,4.72,0,0,0-.9.05,8.74,8.74,0,0,0,.9,0l2.63.06,10.12.13,37.24.19,122.87.08c48,0,91.39.06,122.83.28,15.72.11,28.44.26,37.23.42,4.4.09,7.81.17,10.13.26a18.8,18.8,0,0,1,3.53.26,19.45,19.45,0,0,1-3.53.22c-2.32.07-5.73.12-10.13.16-8.79.08-21.52.09-37.24.05C410.61,250.66,367.19,250.29,319.23,249.81Z" style="fill:#ebebeb"></path><path d="M318.28,260.33l-121.2-19.7-36.75-5.8-10-1.5-2.61-.36a4.93,4.93,0,0,0-.89-.09,5.58,5.58,0,0,0,.88.19l2.59.46,10,1.66L197,241l121.37,18.62c47.38,7.23,90.27,13.85,121.29,18.82,15.51,2.48,28.06,4.55,36.72,6,4.33.75,7.68,1.35,10,1.79a18.73,18.73,0,0,1,3.44.79,19,19,0,0,1-3.53-.31c-2.29-.28-5.67-.74-10-1.37-8.7-1.25-21.27-3.15-36.8-5.57C408.41,275,365.57,268.05,318.28,260.33Z" style="fill:#ebebeb"></path><path d="M315.63,270.57l-116.48-38-35.36-11.34-9.64-3-2.51-.75a4.54,4.54,0,0,0-.87-.22,7.08,7.08,0,0,0,.83.32l2.48.85,9.59,3.17L199,232.94l116.84,37c45.62,14.39,86.9,27.49,116.73,37.15,14.92,4.82,27,8.78,35.28,11.58,4.15,1.4,7.37,2.51,9.54,3.29a17.58,17.58,0,0,1,3.28,1.32,18.66,18.66,0,0,1-3.44-.85c-2.22-.63-5.48-1.6-9.68-2.88-8.39-2.57-20.49-6.37-35.43-11.14C402.27,298.85,361.09,285.45,315.63,270.57Z" style="fill:#ebebeb"></path><path d="M311.37,280.28,202.48,224.94,169.4,208.32l-9-4.45L158,202.74a4.56,4.56,0,0,0-.82-.35,6.88,6.88,0,0,0,.77.44l2.32,1.22,8.95,4.59,33.07,16.64,109.4,54.38C354.42,300.85,393.06,320.1,421,334.2c14,7,25.21,12.8,33,16.83,3.88,2,6.88,3.6,8.9,4.71a18.12,18.12,0,0,1,3,1.79,18.81,18.81,0,0,1-3.25-1.36c-2.1-1-5.16-2.43-9.1-4.34-7.86-3.81-19.2-9.42-33.18-16.41C392.35,321.44,353.85,301.91,311.37,280.28Z" style="fill:#ebebeb"></path><path d="M305.59,289.22,206.94,218l-30-21.43-8.2-5.77-2.15-1.48a4.7,4.7,0,0,0-.75-.47,5.52,5.52,0,0,0,.68.56l2.1,1.55,8.1,5.89,30,21.46L306,288.65c38.78,27.42,73.86,52.3,99.14,70.47C417.81,368.2,428,375.59,435,380.75c3.51,2.58,6.21,4.61,8,6a18.83,18.83,0,0,1,2.7,2.23,17.22,17.22,0,0,1-3-1.84c-1.91-1.27-4.7-3.18-8.28-5.66-7.16-5-17.46-12.22-30.14-21.25C379,342.18,344.07,317,305.59,289.22Z" style="fill:#ebebeb"></path><path d="M298.45,297.17l-86-85.25-26.21-25.71L179,179.27l-1.88-1.78a6.69,6.69,0,0,0-.67-.59,3.67,3.67,0,0,0,.59.66l1.81,1.85,7.07,7.05,26.19,25.73L299,296.67c33.92,32.95,64.58,62.84,86.65,84.6,11,10.88,19.93,19.72,26,25.88,3.05,3.08,5.4,5.49,7,7.14a17.14,17.14,0,0,1,2.3,2.61,18.89,18.89,0,0,1-2.66-2.26c-1.68-1.55-4.14-3.86-7.27-6.85-6.28-6-15.29-14.72-26.37-25.55C362.45,360.57,332,330.47,298.45,297.17Z" style="fill:#ebebeb"></path><path d="M290.13,303.94l-71.36-97.22L197,177.36l-6-7.94c-.68-.88-1.2-1.56-1.58-2a4.84,4.84,0,0,0-.57-.68,6.67,6.67,0,0,0,.48.74l1.5,2.1c1.36,1.87,3.33,4.56,5.85,8L218.45,207l72.26,96.58c28.24,37.68,53.75,71.83,72.07,96.67,9.16,12.41,16.53,22.5,21.56,29.5,2.52,3.5,4.46,6.24,5.75,8.11a18,18,0,0,1,1.86,2.92,18.2,18.2,0,0,1-2.27-2.64c-1.42-1.78-3.47-4.43-6.09-7.86-5.24-6.86-12.75-16.85-22-29.23C343.2,376.25,318,341.91,290.13,303.94Z" style="fill:#ebebeb"></path><path d="M280.82,309.37C259.4,267.64,240,229.88,226,202.5l-16.79-32.3c-2-3.78-3.55-6.72-4.63-8.75-.53-1-.93-1.73-1.23-2.27a4.93,4.93,0,0,0-.45-.75,4.49,4.49,0,0,0,.35.8l1.14,2.31,4.49,8.82,16.76,32.32,55.84,106.38c21.83,41.5,41.54,79.11,55.63,106.42,7.06,13.66,12.71,24.74,16.56,32.42,1.92,3.84,3.39,6.84,4.37,8.88a17.49,17.49,0,0,1,1.36,3.17,17.39,17.39,0,0,1-1.82-2.95c-1.11-2-2.71-4.9-4.75-8.69-4.07-7.57-9.88-18.58-17-32.2C321.6,388.86,302.19,351.1,280.82,309.37Z" style="fill:#ebebeb"></path><path d="M270.75,313.32c-14.4-44.49-27.42-84.75-36.86-113.93l-11.34-34.47c-1.37-4-2.43-7.18-3.16-9.35-.37-1-.65-1.84-.85-2.42a4.73,4.73,0,0,0-.33-.81,5.44,5.44,0,0,0,.22.84c.18.59.43,1.4.75,2.46l3,9.39c2.68,8.17,6.54,19.94,11.32,34.48,9.71,29.1,23.11,69.24,37.93,113.59s28.21,84.48,37.71,113.61c4.75,14.56,8.54,26.37,11.09,34.54,1.28,4.09,2.25,7.28,2.88,9.44A16.45,16.45,0,0,1,324,474a18.71,18.71,0,0,1-1.31-3.2c-.78-2.12-1.89-5.26-3.29-9.31-2.8-8.1-6.75-19.85-11.56-34.4C298.15,398.05,285.09,357.79,270.75,313.32Z" style="fill:#ebebeb"></path><path d="M260.16,315.67c-7-46.13-13.36-87.88-18-118.14-2.37-15.09-4.29-27.3-5.62-35.78L235,152c-.19-1.09-.34-1.92-.45-2.52a5.61,5.61,0,0,0-.19-.86,5.15,5.15,0,0,0,.08.87c.08.61.2,1.45.35,2.54.33,2.26.82,5.53,1.44,9.74,1.33,8.48,3.24,20.69,5.6,35.78,4.88,30.22,11.62,71.91,19.06,118s14.18,87.75,18.85,118c2.34,15.11,4.17,27.35,5.37,35.82.6,4.23,1,7.52,1.31,9.76a16.84,16.84,0,0,1,.28,3.42,18.21,18.21,0,0,1-.78-3.35c-.43-2.21-1-5.48-1.74-9.7-1.45-8.43-3.45-20.64-5.85-35.74C273.51,403.54,267.13,361.79,260.16,315.67Z" style="fill:#ebebeb"></path><path d="M249.32,316.39c.43-46.64.82-88.83,1.11-119.42.06-15.26.12-27.61.15-36.19,0-4.25,0-7.56,0-9.84,0-1.1,0-1.95,0-2.56a8.17,8.17,0,0,0-.05-.87,4.79,4.79,0,0,0-.06.87c0,.61,0,1.46-.06,2.56,0,2.28-.07,5.59-.12,9.84,0,8.57-.11,20.93-.18,36.19,0,30.59,0,72.79,0,119.42s0,88.82-.21,119.37c-.1,15.28-.25,27.65-.41,36.19-.08,4.27-.17,7.59-.26,9.84a18.79,18.79,0,0,1-.26,3.43,17,17,0,0,1-.24-3.43c-.06-2.25-.12-5.57-.16-9.84-.09-8.55-.11-20.92-.07-36.19C248.5,405.2,248.85,363,249.32,316.39Z" style="fill:#ebebeb"></path><path d="M238.49,315.46c7.89-46,15-87.62,20.2-117.8,2.5-15.06,4.53-27.25,5.94-35.72.66-4.2,1.18-7.47,1.54-9.73.15-1.09.28-1.93.37-2.53a5.15,5.15,0,0,0,.08-.87,7.12,7.12,0,0,0-.19.85c-.12.6-.27,1.43-.48,2.52-.39,2.25-1,5.51-1.69,9.7-1.42,8.47-3.45,20.66-6,35.72-4.89,30.22-11.63,71.91-19.08,118S225,403.32,219.92,433.47c-2.54,15.08-4.66,27.27-6.19,35.68-.77,4.21-1.38,7.48-1.83,9.69a16.75,16.75,0,0,1-.82,3.34,18.54,18.54,0,0,1,.32-3.42c.29-2.24.76-5.52,1.4-9.75,1.28-8.46,3.23-20.68,5.71-35.76C223.47,403.07,230.57,361.43,238.49,315.46Z" style="fill:#ebebeb"></path><path d="M228,312.9c15.24-44.21,29-84.23,39-113.23,4.92-14.5,8.89-26.23,11.66-34.38,1.33-4,2.37-7.19,3.09-9.36.33-1.06.59-1.87.78-2.45a4,4,0,0,0,.22-.85,6.79,6.79,0,0,0-.33.82l-.88,2.41-3.24,9.32c-2.77,8.14-6.76,19.87-11.68,34.36-9.73,29.1-23.14,69.23-38,113.59S200.41,397.6,190.49,426.6c-5,14.5-9,26.21-11.9,34.29-1.43,4-2.57,7.17-3.37,9.28a18,18,0,0,1-1.35,3.18,16.33,16.33,0,0,1,.86-3.34c.65-2.16,1.65-5.33,3-9.41,2.63-8.15,6.53-19.92,11.43-34.44C198.91,397.12,212.67,357.09,228,312.9Z" style="fill:#ebebeb"></path><path d="M218,308.76c22.21-41.33,42.31-78.74,56.87-105.86l17.08-32.16,4.57-8.78,1.16-2.29a6.36,6.36,0,0,0,.37-.8,3.9,3.9,0,0,0-.46.75l-1.26,2.25-4.71,8.71-17.1,32.15L218.6,309.09c-21.78,41.52-41.56,79.1-56,106.22-7.24,13.56-13.15,24.51-17.3,32-2.07,3.77-3.7,6.69-4.83,8.65a18.3,18.3,0,0,1-1.85,2.94,17.65,17.65,0,0,1,1.4-3.16c1-2,2.49-5,4.45-8.84,3.93-7.65,9.69-18.67,16.87-32.26C175.66,387.49,195.73,350.06,218,308.76Z" style="fill:#ebebeb"></path><path d="M208.76,303.15,282,207.24l22-29.18,5.93-8,1.52-2.09a5.17,5.17,0,0,0,.48-.74,6.22,6.22,0,0,0-.57.67l-1.6,2-6.06,7.88L281.64,207l-72.3,96.56c-28.19,37.71-53.77,71.82-72.44,96.4-9.33,12.29-16.93,22.21-22.24,29-2.66,3.41-4.74,6-6.17,7.81a17.74,17.74,0,0,1-2.29,2.62,18.09,18.09,0,0,1,1.88-2.91c1.31-1.86,3.27-4.57,5.83-8.05,5.1-7,12.57-17,21.85-29.31C154.31,374.49,180.16,340.57,208.76,303.15Z" style="fill:#ebebeb"></path><path d="M200.57,296.22l87.66-83.69,26.44-25.48,7.14-7,1.83-1.84a6.44,6.44,0,0,0,.6-.65,6.54,6.54,0,0,0-.68.57l-1.9,1.77-7.25,6.87L288,212.26l-86.88,84.46c-33.88,33-64.61,62.81-87,84.27-11.18,10.74-20.28,19.38-26.61,25.31-3.17,3-5.64,5.25-7.34,6.78a18.1,18.1,0,0,1-2.69,2.24,17.82,17.82,0,0,1,2.33-2.58c1.59-1.64,4-4,7-7.08C93,399.56,102,390.79,113.1,380,135.38,358.46,166.33,328.85,200.57,296.22Z" style="fill:#ebebeb"></path><path d="M193.6,288.13l100-69.41,30.19-21.18,8.17-5.82,2.1-1.54a5.43,5.43,0,0,0,.7-.55,4.86,4.86,0,0,0-.76.47l-2.17,1.45-8.26,5.7-30.2,21.16L194,288.7C155.27,316.17,120.15,341,94.6,358.8c-12.76,8.92-23.13,16.08-30.34,21-3.6,2.45-6.41,4.33-8.34,5.59a18.76,18.76,0,0,1-3,1.81A18.51,18.51,0,0,1,55.63,385c1.83-1.38,4.56-3.37,8.09-5.92,7-5.1,17.32-12.4,30.05-21.36C119.23,339.76,154.55,315.2,193.6,288.13Z" style="fill:#ebebeb"></path><path d="M188,279.09l109.93-53.37,33.23-16.33,9-4.5,2.33-1.2a6.88,6.88,0,0,0,.77-.44,4.88,4.88,0,0,0-.82.34l-2.38,1.11L331,209.07l-33.24,16.31c-28,13.91-66.69,33.12-109.42,54.34S107,320.13,78.86,333.85c-14,6.86-25.44,12.36-33.34,16.11-4,1.87-7,3.3-9.14,4.25a19,19,0,0,1-3.26,1.33,17.33,17.33,0,0,1,3-1.77c2-1.08,5.05-2.64,8.94-4.62,7.8-4,19.11-9.62,33.13-16.53C106.25,318.77,145.08,299.88,188,279.09Z" style="fill:#ebebeb"></path><path d="M183.94,269.3l117.2-35.89,35.46-11,9.61-3.07,2.5-.83a4.68,4.68,0,0,0,.83-.32,8.07,8.07,0,0,0-.87.22l-2.52.73L336.48,222,301,233,184.16,270c-45.59,14.45-86.9,27.48-116.87,36.73-15,4.62-27.12,8.32-35.53,10.8-4.21,1.25-7.48,2.19-9.71,2.8a18.85,18.85,0,0,1-3.44.82,17,17,0,0,1,3.28-1.29c2.18-.75,5.41-1.83,9.58-3.2,8.33-2.72,20.42-6.57,35.39-11.26C96.78,296,138.19,283.27,183.94,269.3Z" style="fill:#ebebeb"></path><path d="M181.51,259l121.55-17.52L339.87,236l10-1.56,2.6-.44a4.79,4.79,0,0,0,.87-.18,5.43,5.43,0,0,0-.89.08l-2.61.33-10,1.42L303,241.11l-121.38,18.6C134.26,267,91.35,273.55,60.26,278.1c-15.54,2.28-28.13,4.07-36.84,5.24-4.36.59-7.74,1-10,1.28a19,19,0,0,1-3.53.28,17.62,17.62,0,0,1,3.45-.76c2.28-.42,5.64-1,10-1.7,8.67-1.41,21.23-3.36,36.77-5.71C91.11,272,134.07,265.82,181.51,259Z" style="fill:#ebebeb"></path><path d="M180.77,248.48l122.87,1,37.24.13,10.12,0,2.64,0a6,6,0,0,0,.89,0,5.06,5.06,0,0,0-.89-.06l-2.64-.05-10.12-.11-37.24-.16-122.87.08c-48,.06-91.39.05-122.83-.14-15.72-.09-28.44-.22-37.23-.37-4.4-.08-7.81-.16-10.13-.25a19.53,19.53,0,0,1-3.53-.25,18.72,18.72,0,0,1,3.53-.23c2.32-.07,5.73-.13,10.13-.17,8.79-.09,21.52-.12,37.24-.09C89.39,247.74,132.81,248.06,180.77,248.48Z" style="fill:#ebebeb"></path><path d="M181.71,238l121.22,19.55,36.76,5.75,10,1.49,2.61.36a5.43,5.43,0,0,0,.89.08,5.22,5.22,0,0,0-.87-.19l-2.59-.46-10-1.64L303,257.13,181.6,238.65C134.21,231.48,91.31,224.92,60.28,220c-15.51-2.46-28.06-4.51-36.72-6-4.33-.74-7.69-1.34-10-1.78a19.74,19.74,0,0,1-3.45-.78,18.21,18.21,0,0,1,3.53.3c2.3.28,5.68.74,10,1.36,8.7,1.24,21.27,3.13,36.8,5.53C91.56,223.41,134.41,230.29,181.71,238Z" style="fill:#ebebeb"></path><path d="M184.34,227.71l116.54,37.86,35.37,11.31,9.64,3,2.52.75a5.49,5.49,0,0,0,.87.22,5.09,5.09,0,0,0-.84-.32l-2.48-.85-9.59-3.15L301,265.2,184.11,228.38c-45.63-14.33-86.94-27.38-116.78-37-14.92-4.81-27-8.75-35.29-11.54-4.15-1.4-7.37-2.5-9.55-3.28a18.72,18.72,0,0,1-3.27-1.31,18.83,18.83,0,0,1,3.43.84c2.23.63,5.49,1.6,9.69,2.87,8.39,2.56,20.5,6.35,35.44,11.09C97.67,199.54,138.87,212.89,184.34,227.71Z" style="fill:#ebebeb"></path><path d="M188.59,218l109,55.21,33.1,16.57,9,4.44,2.36,1.13a4.56,4.56,0,0,0,.82.35,4.67,4.67,0,0,0-.77-.45L339.78,294l-9-4.58-33.09-16.6L188.26,218.62c-42.74-21.14-81.42-40.34-109.33-54.41-14-7-25.22-12.76-33-16.79-3.88-2-6.88-3.59-8.9-4.69a19.55,19.55,0,0,1-3-1.79,18.33,18.33,0,0,1,3.26,1.35c2.09,1,5.16,2.42,9.09,4.33,7.88,3.81,19.22,9.4,33.21,16.37C107.56,176.93,146.08,196.42,188.59,218Z" style="fill:#ebebeb"></path><path d="M194.36,209.05l98.74,71.09,30,21.4,8.2,5.76,2.16,1.47a4.7,4.7,0,0,0,.75.47,6.43,6.43,0,0,0-.69-.56l-2.09-1.55-8.12-5.88-30-21.42-99.4-70.21C155.11,182.25,120,157.41,94.7,139.27,82,130.21,71.83,122.83,64.82,117.68c-3.51-2.58-6.22-4.6-8-6a18.83,18.83,0,0,1-2.7-2.23,17.47,17.47,0,0,1,3,1.83c1.91,1.27,4.71,3.18,8.29,5.66,7.16,5,17.47,12.2,30.16,21.21C120.93,156.18,155.84,181.28,194.36,209.05Z" style="fill:#ebebeb"></path><path d="M201.49,201.09l86.16,85.15,26.24,25.68,7.19,6.93,1.89,1.78a5.89,5.89,0,0,0,.67.58,5.75,5.75,0,0,0-.6-.66l-1.81-1.85c-1.65-1.63-4-4-7.08-7L287.93,286l-87-84.38c-34-32.91-64.67-62.76-86.76-84.49-11-10.87-20-19.7-26.06-25.85-3.05-3.08-5.41-5.48-7-7.14a18.05,18.05,0,0,1-2.31-2.6,18.52,18.52,0,0,1,2.67,2.26c1.68,1.54,4.14,3.85,7.28,6.84,6.28,6,15.31,14.7,26.4,25.52C137.41,137.77,167.89,167.84,201.49,201.09Z" style="fill:#ebebeb"></path><path d="M209.8,194.31l71.49,97.13,21.81,29.33,6,7.94c.68.88,1.21,1.55,1.58,2a7.57,7.57,0,0,0,.57.68,4.21,4.21,0,0,0-.48-.74q-.52-.75-1.5-2.1l-5.86-8c-5.17-6.95-12.6-17-21.79-29.34l-72.39-96.5C180.93,157.08,155.38,123,137,98.14c-9.18-12.4-16.56-22.48-21.61-29.48-2.52-3.49-4.46-6.23-5.75-8.09a17.72,17.72,0,0,1-1.86-2.93,18.2,18.2,0,0,1,2.27,2.64c1.42,1.78,3.47,4.43,6.1,7.85C121.43,75,129,85,138.18,97.33,156.64,122.07,181.93,156.38,209.8,194.31Z" style="fill:#ebebeb"></path><path d="M219.11,188.87l55,106.8L290.91,328l4.64,8.75,1.24,2.26a4.32,4.32,0,0,0,.45.75,4.49,4.49,0,0,0-.35-.8c-.28-.55-.66-1.31-1.15-2.31l-4.5-8.81c-4-7.65-9.71-18.68-16.8-32.3l-56-106.31c-21.88-41.47-41.64-79.06-55.77-106.35C155.62,69.18,150,58.11,146.1,50.43c-1.93-3.84-3.41-6.83-4.38-8.88a16.87,16.87,0,0,1-1.37-3.17,18,18,0,0,1,1.82,2.95c1.11,2,2.72,4.9,4.76,8.69,4.08,7.57,9.9,18.56,17,32.18C178.22,109.43,197.68,147.17,219.11,188.87Z" style="fill:#ebebeb"></path><path d="M229.17,184.91l37,113.88,11.39,34.46c1.36,4,2.43,7.17,3.16,9.34l.86,2.42a5.17,5.17,0,0,0,.33.82,6.74,6.74,0,0,0-.22-.85c-.18-.58-.43-1.4-.76-2.45-.7-2.18-1.71-5.34-3-9.4l-11.36-34.46L228.48,185.13c-14.89-44.31-28.32-84.45-37.86-113.57C185.85,57,182.05,45.21,179.48,37c-1.28-4.08-2.26-7.27-2.89-9.43a16.65,16.65,0,0,1-.83-3.34,18.22,18.22,0,0,1,1.32,3.19c.78,2.12,1.89,5.25,3.29,9.3,2.81,8.1,6.78,19.85,11.61,34.39C201.66,100.21,214.77,140.45,229.17,184.91Z" style="fill:#ebebeb"></path><path d="M239.76,182.54c7.07,46.13,13.47,87.87,18.1,118.12,2.39,15.08,4.33,27.29,5.67,35.77.7,4.2,1.24,7.46,1.62,9.71.19,1.09.34,1.93.45,2.53a5.63,5.63,0,0,0,.19.85,5.15,5.15,0,0,0-.08-.87c-.08-.6-.2-1.44-.35-2.54l-1.46-9.73c-1.34-8.48-3.26-20.69-5.64-35.78-4.92-30.21-11.71-71.89-19.22-118S224.75,94.93,220,64.71c-2.35-15.1-4.2-27.34-5.41-35.8-.61-4.23-1.06-7.52-1.33-9.76a18.6,18.6,0,0,1-.29-3.43,16.9,16.9,0,0,1,.79,3.36c.43,2.21,1,5.48,1.75,9.69C217,37.2,219,49.41,221.45,64.5,226.29,94.69,232.73,136.44,239.76,182.54Z" style="fill:#ebebeb"></path><path d="M250.59,181.81c-.37,46.64-.71,88.84-1,119.42,0,15.26-.08,27.62-.11,36.19,0,4.25,0,7.56,0,9.84,0,1.11,0,1.95,0,2.56a8.17,8.17,0,0,0,0,.87,4.79,4.79,0,0,0,.06-.87c0-.61,0-1.45.06-2.56,0-2.28.06-5.59.11-9.84,0-8.57.07-20.93.13-36.19,0-30.58-.09-72.78-.15-119.42s-.11-88.82.06-119.37c.08-15.28.21-27.64.36-36.19.08-4.27.16-7.59.25-9.84A16.72,16.72,0,0,1,250.8,13a18.71,18.71,0,0,1,.23,3.43c.07,2.25.14,5.57.18,9.84.1,8.55.14,20.91.12,36.19C251.3,93,251,135.21,250.59,181.81Z" style="fill:#ebebeb"></path><path d="M261.42,182.72c-7.82,46-14.9,87.65-20,117.83-2.48,15.06-4.49,27.26-5.89,35.73-.66,4.2-1.17,7.47-1.53,9.73-.15,1.09-.28,1.93-.36,2.53a4.8,4.8,0,0,0-.09.87,4.21,4.21,0,0,0,.2-.85c.11-.6.26-1.43.47-2.52.39-2.25.95-5.51,1.68-9.7,1.4-8.47,3.42-20.67,5.92-35.73,4.85-30.22,11.53-71.92,18.93-118s14.07-87.76,19.13-117.92C282.36,49.61,284.46,37.42,286,29c.76-4.21,1.38-7.47,1.82-9.68a17.61,17.61,0,0,1,.81-3.35,16.93,16.93,0,0,1-.31,3.43c-.29,2.23-.76,5.52-1.39,9.75-1.27,8.45-3.21,20.67-5.67,35.76C276.33,95.09,269.28,136.74,261.42,182.72Z" style="fill:#ebebeb"></path><path d="M272,185.27c-15.18,44.24-28.92,84.27-38.89,113.29l-11.6,34.38c-1.33,4.05-2.37,7.2-3.09,9.38-.33,1.05-.58,1.86-.77,2.44a4.22,4.22,0,0,0-.22.85,7,7,0,0,0,.33-.81c.21-.58.5-1.38.87-2.42l3.24-9.32c2.75-8.15,6.73-19.89,11.63-34.38,9.68-29.11,23-69.26,37.81-113.63s28.11-84.51,38-113.52c4.94-14.5,9-26.23,11.86-34.31,1.43-4,2.56-7.17,3.36-9.28a16.65,16.65,0,0,1,1.35-3.18A18.47,18.47,0,0,1,325,28.1c-.65,2.16-1.64,5.33-3,9.41-2.62,8.16-6.51,19.93-11.38,34.46C300.89,101,287.18,141.07,272,185.27Z" style="fill:#ebebeb"></path><path d="M282,189.4,225.23,295.33c-7.18,13.57-13,24.55-17,32.18l-4.57,8.78c-.5,1-.88,1.76-1.16,2.3a7,7,0,0,0-.36.8,3.9,3.9,0,0,0,.46-.75c.3-.53.71-1.28,1.25-2.25l4.71-8.71,17.05-32.18c14.28-27.26,34-64.86,55.74-106.42s41.46-79.16,55.91-106.29c7.23-13.57,13.12-24.53,17.26-32.07,2.07-3.77,3.69-6.69,4.82-8.66a18.55,18.55,0,0,1,1.84-2.94,17.22,17.22,0,0,1-1.39,3.17c-1,2-2.49,5-4.44,8.84-3.92,7.65-9.66,18.69-16.83,32.28C324.16,110.61,304.14,148.07,282,189.4Z" style="fill:#ebebeb"></path><path d="M291.17,195c-28.53,37.49-54.36,71.41-73.08,96-9.27,12.32-16.78,22.28-22,29.2l-5.93,8-1.51,2.09a5.71,5.71,0,0,0-.49.73,4.61,4.61,0,0,0,.58-.67l1.6-2,6-7.89,22-29.19,72.18-96.65c28.14-37.74,53.67-71.88,72.31-96.49,9.32-12.3,16.91-22.23,22.21-29,2.65-3.41,4.72-6.05,6.15-7.82a19.31,19.31,0,0,1,2.29-2.62,17.21,17.21,0,0,1-1.88,2.91c-1.3,1.86-3.26,4.58-5.81,8.06-5.1,7-12.55,17-21.81,29.34C345.52,123.59,319.72,157.55,291.17,195Z" style="fill:#ebebeb"></path><path d="M299.37,201.92l-87.56,83.8-26.4,25.51-7.13,7-1.83,1.84a6.44,6.44,0,0,0-.6.65,4,4,0,0,0,.68-.57l1.9-1.77,7.24-6.88L212.09,286c22.22-21.66,52.88-51.55,86.77-84.57s64.52-62.89,86.87-84.38c11.18-10.75,20.26-19.4,26.59-25.34,3.16-3,5.63-5.26,7.33-6.79a19.09,19.09,0,0,1,2.68-2.25,17.78,17.78,0,0,1-2.33,2.6c-1.58,1.64-3.95,4-7,7.08-6.15,6.11-15.11,14.88-26.24,25.68C364.48,139.6,333.56,169.24,299.37,201.92Z" style="fill:#ebebeb"></path><path d="M306.35,210l-99.89,69.54-30.17,21.21-8.16,5.83-2.1,1.54a4.86,4.86,0,0,0-.7.56,7.2,7.2,0,0,0,.76-.47l2.17-1.46L176.5,301l30.19-21.19,99.24-70.42c38.71-27.51,73.81-52.38,99.32-70.23,12.76-8.92,23.12-16.1,30.32-21,3.6-2.45,6.41-4.34,8.33-5.6a18.76,18.76,0,0,1,3-1.81,18.51,18.51,0,0,1-2.72,2.21c-1.83,1.38-4.55,3.38-8.08,5.93-7.05,5.11-17.31,12.42-30,21.4C380.65,158.28,345.36,182.89,306.35,210Z" style="fill:#ebebeb"></path><path d="M312,219,202.1,272.54l-33.21,16.37-9,4.52-2.33,1.2a6.88,6.88,0,0,0-.77.44,4.88,4.88,0,0,0,.82-.34l2.38-1.12,9.06-4.38,33.22-16.35,109.35-54.47c42.66-21.3,81.32-40.52,109.4-54.27,14-6.88,25.42-12.4,33.32-16.15,3.95-1.88,7-3.32,9.13-4.26a19.74,19.74,0,0,1,3.26-1.34,17.33,17.33,0,0,1-3,1.77c-2,1.09-5,2.65-8.94,4.64-7.78,4-19.09,9.64-33.1,16.57C393.66,179.25,354.85,198.19,312,219Z" style="fill:#ebebeb"></path><path d="M316,228.82l-117.15,36L163.44,276,153.83,279l-2.49.83a5.85,5.85,0,0,0-.84.32,4.66,4.66,0,0,0,.87-.21l2.52-.74,9.67-2.94L199,265.23l116.8-37.08c45.58-14.51,86.87-27.58,116.82-36.87,15-4.65,27.12-8.36,35.53-10.86,4.2-1.24,7.47-2.19,9.7-2.81a18,18,0,0,1,3.44-.81,19,19,0,0,1-3.28,1.28c-2.18.76-5.41,1.85-9.58,3.21-8.33,2.74-20.41,6.6-35.37,11.31C403.16,202,361.77,214.79,316,228.82Z" style="fill:#ebebeb"></path><path d="M318.48,239.1,197,256.78l-36.8,5.53-10,1.58-2.59.44a4.8,4.8,0,0,0-.88.18,5.43,5.43,0,0,0,.89-.08l2.61-.34,10-1.42,36.8-5.51,121.36-18.75c47.35-7.36,90.25-13.95,121.33-18.55,15.54-2.29,28.13-4.1,36.84-5.28,4.35-.59,7.74-1,10-1.3a20.11,20.11,0,0,1,3.52-.28,17.71,17.71,0,0,1-3.45.77c-2.27.42-5.63,1-10,1.71-8.67,1.42-21.23,3.39-36.76,5.75C408.86,226,365.91,232.24,318.48,239.1Z" style="fill:#ebebeb"></path></g><g id="freepik--Table--inject-253"><path d="M457.75,483.75c0,.14-93.73.26-209.33.26s-209.36-.12-209.36-.26,93.72-.26,209.36-.26S457.75,483.61,457.75,483.75Z" style="fill:#263238"></path></g><g id="freepik--Character--inject-253"><path d="M346.69,428.11s-4.49,10.15-2.94,19.25-.2,19.86,3.78,21.75,5.7-.3,5.93-4.56.73-10.82.86-15.85a46.57,46.57,0,0,1,.41-6.4l1.7-13.66Z" style="fill:#ffbf9d"></path><path d="M363.92,422.17s6.24,24.88,6.22,28-2,7.4-2,7.4-1.89,10.91-2.91,12.23S354,472.83,354,472.83l-6.51-3.72,2.64-5.66,5.61.92,1.3-4.67-3.65-5.4-3.11-26Z" style="fill:#ffbf9d"></path><path d="M357.41,441.37a6,6,0,0,1-.34,1.28c-.24.82-.61,2-1,3.47a67.62,67.62,0,0,0-2,11.68c-.1,1.16-.15,2.29-.19,3.38a27.14,27.14,0,0,1-.2,3.18,6.23,6.23,0,0,1-2.65,4.66,3.51,3.51,0,0,1-3.59.06,2.64,2.64,0,0,1-.74-.69.8.8,0,0,1-.15-.31,4,4,0,0,0,1,.82,3.36,3.36,0,0,0,3.3-.19,6,6,0,0,0,2.37-4.41,28.23,28.23,0,0,0,.16-3.13c0-1.1.08-2.24.18-3.41A57.87,57.87,0,0,1,355.73,446c.43-1.47.85-2.63,1.15-3.43A6.89,6.89,0,0,1,357.41,441.37Z" style="fill:#ff9a6c"></path><path d="M346.69,428.11l-4.51-15.37s16.47-11.64,17.37-10.88,5,23,5,23l-8.45,9.07Z" style="fill:#ffbf9d"></path><path d="M313.67,199.92c-5.58-8.41-34.9-16.61-34.9-16.61l7.87,6.57,17,91.73,37.6,135.22,29.29-5.48S332.66,228.47,313.67,199.92Z" style="fill:#FF725E"></path><path d="M330.52,380.08l-69.23,34s-5.5,41.22-.77,69.66h62.6C339,429.12,330.52,380.08,330.52,380.08Z" style="fill:#263238"></path><path d="M271.4,419,198.6,359.9s-29.25,44.51-20,88.79c1.38,6.64,5.76,25.48,8.63,35.06h86C271,452.45,271.4,419,271.4,419Z" style="fill:#263238"></path><path d="M330.86,381.05c.27-.1-58.8,43.17-58.8,43.17l-79.19-53.77,14.61-28S248,359.77,269,355.43s44-23.09,44-23.09C318.24,343.59,327.63,368.58,330.86,381.05Z" style="fill:#263238"></path><path d="M291.73,392l-1.07,1.48-4.11,5.83c-3.59,5.14-8.8,12.61-15.38,22.06l-.06.08v.1c.75,8.25,1,17.85,1.54,28.52s.14,21.11.74,33.73l.84,0c-.65-12.62-.32-23-.86-33.72s-.9-20.2-1.7-28.44l15.12-22.12,4-5.91,1-1.53a2.78,2.78,0,0,0,.32-.53A3.64,3.64,0,0,0,291.73,392Z" style="fill:#455a64"></path><path d="M288.26,81.46A31.37,31.37,0,0,1,299.9,108c-.38,4.87-1.72,10.44,1.45,14.16s9.3,3.57,12.3,7.36c3.54,4.46.58,11.1,1.85,16.66a11.26,11.26,0,0,0,12,8.37A44,44,0,0,1,305.67,164l-6.1-7.84c2.31,2.75,1.7,7.12-.54,9.92s-5.7,4.33-9.12,5.42a55.84,55.84,0,0,1-48.94-8" style="fill:#263238"></path><path d="M196.64,124.52c1.23-3.74,3.27-7.2,4.1-11,1.76-8.26-2.26-17.56,1.74-25,2.86-5.29,8.93-7.88,14.68-9.65s11.91-3.27,16.2-7.49c3.14-3.09,4.93-7.35,8.06-10.46,4.46-4.42,11.05-5.92,17.33-6.31,6.44-.39,13.1.23,18.89,3.07s10.6,8.18,11.63,14.55c.51,3.11.13,6.36,1.11,9.35,1.07,3.29,3.65,5.85,5.25,8.92a16.56,16.56,0,0,1-4.14,19.84l-44.22,57.11c-9.29,3.51-31.8-.73-39-7.59S193.56,134,196.64,124.52Z" style="fill:#263238"></path><path d="M290.32,103c-1.82-13-11.68-28.29-24.56-25.92L226,90.48c-3.91.72-1.11,7.1-.73,11.06l8.65,89.66c-.07,0-5.37,3.83-7.29,3.1a.54.54,0,0,0-.64.81c4.77,6.93,27.31,37.24,50.54,28,5.19-2.06-.55-18.41.06-24.47l-.69-15.48c-.51-7.9-.76-11.13-.75-11.06s16.43-4,18.21-26C294.25,135.12,292.35,117.45,290.32,103Z" style="fill:#ffbf9d"></path><path d="M283.65,122.57a2.79,2.79,0,0,1-2.47,3,2.67,2.67,0,0,1-3.06-2.29,2.79,2.79,0,0,1,2.46-3A2.68,2.68,0,0,1,283.65,122.57Z" style="fill:#263238"></path><path d="M256.39,124a2.79,2.79,0,0,1-2.47,3,2.67,2.67,0,0,1-3.06-2.29,2.79,2.79,0,0,1,2.47-3A2.67,2.67,0,0,1,256.39,124Z" style="fill:#263238"></path><path d="M288.55,113.81c-.3.52-2.89-1.12-6.14-.65s-5.33,2.7-5.75,2.28c-.21-.18,0-1,.95-2.08a7.38,7.38,0,0,1,9.49-1.3C288.24,112.81,288.7,113.58,288.55,113.81Z" style="fill:#263238"></path><path d="M259.41,116.22c-.38.47-2.93-1.38-6.42-1.23s-6,2.12-6.37,1.68c-.19-.2.18-1,1.26-2a8.42,8.42,0,0,1,5.07-1.9,8.22,8.22,0,0,1,5.13,1.54C259.19,115.2,259.6,116,259.41,116.22Z" style="fill:#263238"></path><path d="M270.35,136.77c0-.17,1.81-.64,4.8-1.25.76-.14,1.47-.35,1.56-.88a3.87,3.87,0,0,0-.68-2.23c-.86-1.8-1.77-3.68-2.71-5.66-3.78-8-6.58-14.7-6.26-14.85s3.66,6.26,7.44,14.32l2.62,5.69a4.45,4.45,0,0,1,.62,3,1.93,1.93,0,0,1-1.17,1.21,5,5,0,0,1-1.28.28C272.26,136.78,270.38,136.94,270.35,136.77Z" style="fill:#263238"></path><path d="M275.15,172.08a55.4,55.4,0,0,1-29.69-5.52s8.49,14.68,30.07,11Z" style="fill:#ff9a6c"></path><path d="M261.21,145.52a4.59,4.59,0,0,1,1.54-1.83,3.71,3.71,0,0,1,2.59-.26,6.13,6.13,0,0,1,3.4,1.72,3.65,3.65,0,0,1,.85,3.59h0c-.33,1.26-2.2,1.94-3.48,2.17a5.75,5.75,0,0,1-3.74-.79,3.28,3.28,0,0,1-1.91-2.47A4,4,0,0,1,261.21,145.52Z" style="fill:#ff9a6c"></path><path d="M261.82,141.3c.49-.07.74,3.18,3.71,5.28s6.39,1.47,6.45,1.92c.07.2-.72.7-2.18.85a8.15,8.15,0,0,1-5.38-1.42,7,7,0,0,1-2.89-4.45C261.3,142.13,261.6,141.3,261.82,141.3Z" style="fill:#263238"></path><path d="M259.15,104.49c-.23.84-3.26.68-6.74,1.37s-6.26,1.88-6.78,1.18c-.23-.33.2-1.14,1.29-2a11.94,11.94,0,0,1,10.3-1.94C258.55,103.5,259.25,104.09,259.15,104.49Z" style="fill:#263238"></path><path d="M286.7,102.85c-.55.72-3,.2-5.8.38s-5.21.86-5.82.19c-.26-.32.06-1,1.06-1.76a9,9,0,0,1,4.63-1.48,8.85,8.85,0,0,1,4.73,1C286.56,101.82,286.94,102.49,286.7,102.85Z" style="fill:#263238"></path><path d="M217.21,93.61c2-3.09,5.61-4.68,9-6A200,200,0,0,1,272.3,75.88c2,3.23.15,7.63-2.81,10s-6.76,3.28-10.3,4.61-7.17,3.36-8.63,6.85c-1.55,3.71-.24,8.1-1.6,11.88-2.35,6.51-11.43,8.6-13.74,15.12-1.74,4.94,1.12,10.18,1.83,15.37A18.69,18.69,0,0,1,218.69,161q-1.6-28-3.23-56C215.24,101.06,215.09,96.87,217.21,93.61Z" style="fill:#263238"></path><path d="M179.59,140.78c2.95-2.65,6.65-4.93,7.83-8.71,1.71-5.51-2.72-12,.13-17,2.6-4.57,10.25-4.34,12.67-9,1.89-3.65-.28-6.88.44-10.08s5.26-6,8.52-5.64l25.5,37c2.37,12.4,4.75,19,2.09,26.25-1.46,4-3.36,7.85-3.93,12.05s.5,9,3.93,11.44c-15.25,1.2-29.53-6.78-42.74-14.5l-14-8.16a10.25,10.25,0,0,1-3.84-3.2C174.17,147.78,176.65,143.42,179.59,140.78Z" style="fill:#263238"></path><path d="M193.65,158.8a7.29,7.29,0,0,0,1.63.31,13.75,13.75,0,0,0,4.75-.34,14.64,14.64,0,0,0,6.62-3.56A14.43,14.43,0,0,0,211,146.3a14.73,14.73,0,0,0-.5-5.85,23.48,23.48,0,0,0-2.83-5.67,22.75,22.75,0,0,1-2.92-5.88c-.56-2.12-.56-4.64.82-6.46s4-2.31,6.35-3.28a7,7,0,0,0,3.25-2.41,6.73,6.73,0,0,0,1-4c0-2.79-1.22-5.35-1.73-7.94a8.71,8.71,0,0,1,0-3.9,5.48,5.48,0,0,1,2.2-3.09c2.2-1.57,5-1.82,7.72-2.06a16.57,16.57,0,0,0,7.85-2.31,14.76,14.76,0,0,0,5.38-5.83,24.67,24.67,0,0,0,2-7.31,33.4,33.4,0,0,1,1.49-6.85,15.3,15.3,0,0,1,3.59-5.41,17.14,17.14,0,0,1,20-2.81,21,21,0,0,1,5.87,4.48,27.54,27.54,0,0,1,3.63,5.2,1.9,1.9,0,0,0-.15-.4c-.12-.25-.26-.64-.53-1.12a20,20,0,0,0-2.7-3.91,20.78,20.78,0,0,0-5.89-4.69,18,18,0,0,0-9.73-2.15,18.18,18.18,0,0,0-11,4.87,15.89,15.89,0,0,0-3.81,5.66,34.54,34.54,0,0,0-1.57,7,23.55,23.55,0,0,1-1.94,7,13.91,13.91,0,0,1-5.08,5.48,15.65,15.65,0,0,1-7.48,2.17c-2.67.24-5.68.47-8.14,2.22a6.24,6.24,0,0,0-2.54,3.58,9.6,9.6,0,0,0,0,4.3c.56,2.75,1.71,5.22,1.73,7.78a6,6,0,0,1-.89,3.5,6.1,6.1,0,0,1-2.86,2.11c-1.14.48-2.37.81-3.55,1.31a7.22,7.22,0,0,0-3.13,2.25,8.33,8.33,0,0,0-.92,7.16,22.73,22.73,0,0,0,3.05,6.07,23.3,23.3,0,0,1,2.8,5.48,14.3,14.3,0,0,1,.53,5.58,14.05,14.05,0,0,1-4.08,8.62,14.61,14.61,0,0,1-6.37,3.59A16.59,16.59,0,0,1,193.65,158.8Z" style="fill:#455a64"></path><path d="M173.32,132.52a3.26,3.26,0,0,0-.51,1.25,5.48,5.48,0,0,0,.66,3.78,5.73,5.73,0,0,0,1.95,2,6,6,0,0,0,3.25.87,7.63,7.63,0,0,0,6.68-4.24,10.15,10.15,0,0,0,1.09-4.65,14.33,14.33,0,0,0-1.07-5c-1.21-3.3-3.41-6.51-3.46-10.37a7.08,7.08,0,0,1,1.77-5.24c1.36-1.37,3.46-1.71,5.54-1.73s4.37.2,6.61-.68a5.81,5.81,0,0,0,2.71-2.29,8.1,8.1,0,0,0,1.11-3.36,26.84,26.84,0,0,0-.55-6.78,14.88,14.88,0,0,1,.36-6.28,15.84,15.84,0,0,1,7.09-9.31c3.31-2,7.13-2.21,10.57-2.42s6.82-.4,9.65-1.52a20.25,20.25,0,0,0,6.84-4.3,20,20,0,0,0,3.74-4.8,14.6,14.6,0,0,0,1.81-4.84,27.79,27.79,0,0,1-2.11,4.66A20.43,20.43,0,0,1,226.56,76c-2.74,1-6,1.22-9.48,1.38s-7.41.34-10.94,2.44a16.59,16.59,0,0,0-7.52,9.78,15.62,15.62,0,0,0-.39,6.64c.28,2.2.81,4.39.54,6.55a5.69,5.69,0,0,1-3.28,4.94c-1.93.78-4.14.57-6.29.63s-4.51.37-6.12,2a7.88,7.88,0,0,0-2,5.86,15,15,0,0,0,1.4,5.68c.74,1.73,1.56,3.33,2.19,4.94a13.64,13.64,0,0,1,1.07,4.78,9.51,9.51,0,0,1-1,4.35,7.07,7.07,0,0,1-6.12,4,5.7,5.7,0,0,1-3-.73,5.54,5.54,0,0,1-1.87-1.86,5.45,5.45,0,0,1-.78-3.58A10.54,10.54,0,0,1,173.32,132.52Z" style="fill:#263238"></path><path d="M334,141.63a6,6,0,0,1-.05,4,5.27,5.27,0,0,1-3.16,3.21,5.51,5.51,0,0,1-5.6-1.53,5,5,0,0,1-1.31-3.19,10.57,10.57,0,0,1,.58-3.86c.81-2.58,2.46-5.39,2.21-8.75a12.3,12.3,0,0,0-4.64-8.82,14.32,14.32,0,0,0-4.75-2.5,21.26,21.26,0,0,0-5.43-.78,28,28,0,0,1-5.27-.55,7,7,0,0,1-4.1-2.55,8.54,8.54,0,0,1-1.49-4.51,17.15,17.15,0,0,1,.4-4.7c.62-3,1.54-6,1.37-8.92A13.59,13.59,0,0,0,300,90.76a17.34,17.34,0,0,0-5-4.2,32.17,32.17,0,0,1-4-2.74,10.18,10.18,0,0,1-2.5-3.21.85.85,0,0,0,.07.27,4.54,4.54,0,0,0,.3.74,8.16,8.16,0,0,0,1.9,2.46,30.92,30.92,0,0,0,3.93,2.9,17.14,17.14,0,0,1,4.74,4.16A12.93,12.93,0,0,1,302,98.2c.13,2.75-.77,5.62-1.43,8.72a17.44,17.44,0,0,0-.44,4.93,9.39,9.39,0,0,0,1.63,5,7.85,7.85,0,0,0,4.59,2.89,29.39,29.39,0,0,0,5.44.58A20.17,20.17,0,0,1,317,121a13.62,13.62,0,0,1,4.47,2.33,11.5,11.5,0,0,1,4.36,8.19c.27,3.07-1.26,5.77-2.09,8.48a11.37,11.37,0,0,0-.57,4.13,5.72,5.72,0,0,0,1.54,3.57,6,6,0,0,0,6.22,1.57,5.82,5.82,0,0,0,3.48-6.67A3.4,3.4,0,0,0,334,141.63Z" style="fill:#263238"></path><path d="M292.06,188.06S312.7,223.42,320.11,240c4.12,9.23,5.13,26.67-1.69,53.39-5.11,20,5.68,47.18,7.32,51.07,3.7,8.79-19.95,21.12-23.25,23.3-29.25,19.28-94.82-16.13-94.82-16.13l18-40.27-15.18-34-5.63-88.57,28-9.75c14.87,7.32,36.85,7.5,42.92,3.25Z" style="fill:#FF725E"></path><path d="M289.48,373.51l.45-.13,1.32-.31,2.16-.49,2.87-.93c1.09-.32,2.22-.88,3.51-1.38s2.58-1.26,4-2a63.1,63.1,0,0,0,9-6.18,66.44,66.44,0,0,0,9.29-9.42c.39-.46.73-.95,1.1-1.43s.72-1,1.06-1.49.68-1,1-1.56a6.35,6.35,0,0,0,.44-.81l.21-.41.11-.41a14.82,14.82,0,0,0-.25-3.78c-.21-1.28-.47-2.58-.77-3.89-1.18-5.23-2.71-10.66-4.27-16.3-.79-2.82-1.59-5.68-2.36-8.6-.39-1.47-.77-2.94-1.1-4.44-.17-.75-.32-1.51-.42-2.3a23,23,0,0,1-.08-2.34c.11-6.21.76-12.2,1.39-18v0h0c2.51-9.92,4.71-19.33,5.08-28a36.74,36.74,0,0,0-.24-6.25,43.85,43.85,0,0,0-1.38-5.72,84.21,84.21,0,0,0-3.7-9.84,111,111,0,0,0-7.07-13.29c-.93-1.5-1.68-2.63-2.2-3.4-.24-.37-.44-.65-.58-.87a1.48,1.48,0,0,1-.19-.3l.23.28c.14.18.35.46.62.84.54.75,1.32,1.87,2.27,3.36A102.77,102.77,0,0,1,318.24,237a80.6,80.6,0,0,1,3.77,9.86,42.69,42.69,0,0,1,1.43,5.77,37.68,37.68,0,0,1,.27,6.33c-.35,8.7-2.54,18.14-5,28.06v0c-.62,5.78-1.28,11.79-1.38,17.94a21.72,21.72,0,0,0,.08,2.29c.1.74.24,1.49.41,2.24.33,1.48.7,3,1.09,4.41.77,2.92,1.57,5.79,2.35,8.61,1.56,5.63,3.08,11.07,4.25,16.33.3,1.31.55,2.62.76,3.92a14.71,14.71,0,0,1,.24,3.92c-.05.17-.09.35-.14.51l-.22.44a7.51,7.51,0,0,1-.46.84c-.33.55-.66,1.08-1,1.58s-.7,1-1.08,1.5-.72,1-1.11,1.44a65.44,65.44,0,0,1-9.4,9.43,62.51,62.51,0,0,1-9.1,6.16c-1.45.7-2.78,1.43-4.06,1.95s-2.45,1-3.55,1.35l-2.89.87c-.86.2-1.59.33-2.18.46l-1.33.26Z" style="fill:#263238"></path><g style="opacity:0.30000000000000004"><path d="M324.94,335.35a121.82,121.82,0,0,1-2.75-44.64c1.51-12.1,3.95-24.37,1.35-36.28.09,11-2.19,19.51-5.12,32.53-2.75,12.26-1,18.22-.83,22.82"></path></g><path d="M207.67,351.63s5.39,2.46,10.34-5.1S229,313.66,229.79,311c.53-1.72,2.39-54.75,2.39-54.75l-8.63,50.33,2.16,4.83c-2.54,6.88-4.63,10-7.16,16.64C214.88,337.66,210.82,349.89,207.67,351.63Z" style="opacity:0.30000000000000004"></path><path d="M230.41,255.86s-8.87,86.89-22.74,95.77c-3.46,2.22-7.67,2.92-12,2.72-15.52-.69-27.58-13.83-27.63-29.36,0-18.43,3.07-43.47,4.26-53.77,2.38-20.62,10.74-76.68,32.63-82.45s25.51,25.63,25.51,25.63Z" style="fill:#FF725E"></path><path d="M174.61,183.35s-4,5.32-4,11c0,1.63,3,13.42,3,13.42L186,217.3l23.14,7.47-1.85,12.93,19.91,3.38s.4-15.31,0-25-12-19.36-12-19.36-9.65-11.63-13.79-11-3.94,5.13-2,7.69,7.49,8.67,7.49,8.67l-22.86-2-6.9-5.91s2.28-6,1.58-8.08A3.71,3.71,0,0,0,174.61,183.35Z" style="fill:#ffbf9d"></path><path d="M177,199.64a12.07,12.07,0,0,1,2.16,1.3c1.29.86,3.07,2.07,5,3.44l.39.27h-.3a7.74,7.74,0,0,1,5.67-1.16,6.51,6.51,0,0,1,1.67.54c.37.19.56.33.54.35s-.84-.35-2.26-.53a7.77,7.77,0,0,0-5.32,1.23l-.15.1-.15-.1-.39-.28c-1.93-1.36-3.67-2.63-4.91-3.56A12.81,12.81,0,0,1,177,199.64Z" style="fill:#ff9a6c"></path><path d="M176.08,209.17c.12.07-5.6,10.65-12.77,23.64s-13.1,23.46-13.23,23.39,5.59-10.65,12.77-23.64S176,209.1,176.08,209.17Z" style="fill:#263238"></path><path d="M187.13,200.2c.14,0-.29,10-1,22.21s-1.34,22.2-1.48,22.19.28-9.95,1-22.22S187,200.19,187.13,200.2Z" style="fill:#263238"></path><path d="M188.07,200.44c.15,0,1.1,10.88,2.14,24.31s1.75,24.34,1.61,24.35-1.1-10.87-2.13-24.31S187.93,200.45,188.07,200.44Z" style="fill:#263238"></path><polygon points="73.29 390.72 134.81 249.01 207.16 231.17 146.78 382.53 73.29 390.72" style="fill:#455a64"></polygon><polygon points="105.23 406.35 73.29 390.72 146.78 382.53 187.61 401.83 105.23 406.35" style="fill:#455a64"></polygon><polygon points="105.23 406.35 73.29 390.72 146.78 382.53 187.61 401.83 105.23 406.35" style="opacity:0.30000000000000004"></polygon><polygon points="207.16 231.17 208.78 237.78 219.99 237.44 187.61 401.83 146.78 382.53 207.16 231.17" style="fill:#455a64"></polygon><path d="M207.16,231.17s-.06.19-.2.56-.35.92-.62,1.62c-.56,1.44-1.37,3.53-2.42,6.21-2.14,5.41-5.21,13.2-9,22.82-7.67,19.26-18.24,45.84-29.92,75.2l-18,45-.32-.3,27.08-13.57.19-.09.07.19c4.22,10.16,7.63,18.4,10,24.11,1.17,2.83,2.07,5,2.7,6.56.29.74.52,1.31.69,1.72s.21.59.21.59-.1-.19-.27-.57l-.73-1.7c-.65-1.51-1.59-3.7-2.79-6.52l-10.15-24,.25.09-27,13.65-.55.28.23-.58c5.42-13.62,11.52-28.92,17.95-45.06,11.73-29.33,22.36-55.89,30.05-75.14,3.87-9.59,7-17.36,9.17-22.75,1.09-2.67,1.93-4.75,2.52-6.18.28-.69.51-1.22.66-1.6S207.16,231.17,207.16,231.17Z" style="fill:#263238"></path><path d="M208.78,237.78c.13,0-7.57,29.42-17.22,65.63S174,369,173.84,368.92s7.57-29.42,17.22-65.64S208.64,237.74,208.78,237.78Z" style="fill:#263238"></path><polygon points="207.16 231.17 208.78 237.78 173.84 368.92 146.78 382.53 207.16 231.17" style="opacity:0.30000000000000004"></polygon><path d="M171.22,197.73c.11.09-9.63,10.84-21.75,24s-22,23.74-22.14,23.64,9.63-10.84,21.75-24S171.11,197.63,171.22,197.73Z" style="fill:#263238"></path><polygon points="50.54 356.95 112.06 235.6 184.4 220.33 124.02 349.93 50.54 356.95" style="fill:#FF725E"></polygon><polygon points="82.48 370.33 50.54 356.95 124.02 349.93 164.86 366.45 82.48 370.33" style="fill:#FF725E"></polygon><polygon points="82.48 370.33 50.54 356.95 124.02 349.93 164.86 366.45 82.48 370.33" style="opacity:0.30000000000000004"></polygon><polygon points="184.4 220.33 186.02 225.99 197.24 225.7 164.86 366.45 124.02 349.93 184.4 220.33" style="fill:#FF725E"></polygon><path d="M184.4,220.33s-.06.17-.2.49l-.62,1.41c-.58,1.26-1.41,3.07-2.47,5.4-2.17,4.71-5.29,11.48-9.15,19.83-7.77,16.74-18.5,39.84-30.35,65.34-6.19,13.27-12.08,25.88-17.37,37.23l-.31-.32L151,338.11l.16-.07.08.16,10,20.65c1.16,2.43,2.07,4.32,2.69,5.63l.69,1.47c.15.33.22.51.22.51s-.1-.16-.27-.49l-.74-1.45-2.78-5.58-10.15-20.58.24.09-27,11.7-.58.25.26-.57c5.29-11.35,11.16-24,17.33-37.25l30.5-65.27c3.92-8.33,7.09-15.08,9.3-19.76l2.55-5.36.68-1.39C184.31,220.48,184.4,220.33,184.4,220.33Z" style="fill:#263238"></path><path d="M186,226c.14,0-7.57,25.21-17.22,56.22s-17.58,56.11-17.72,56.07,7.58-25.21,17.22-56.23S185.88,225.94,186,226Z" style="fill:#263238"></path><polygon points="184.4 220.33 186.02 225.99 151.08 338.28 124.02 349.93 184.4 220.33" style="opacity:0.30000000000000004"></polygon><path d="M141.65,229.35a5.84,5.84,0,0,1,.76-.21l2.19-.51,8.07-1.79,26.68-5.71,5-1,.24-.05.06.23,1.61,5.66-.25-.18,11.22-.26h.28l-.07.26c-1.14,4.79-2.08,8.76-2.76,11.59-.33,1.34-.6,2.42-.79,3.2-.09.34-.17.62-.23.84s-.08.29-.1.28a1.58,1.58,0,0,1,0-.29c0-.23.1-.51.16-.85l.69-3.24c.63-2.83,1.51-6.82,2.58-11.62l.21.26-11.21.33h-.2l-.05-.18c-.52-1.83-1.07-3.72-1.63-5.66l.31.18-5,1.06-26.71,5.56-8.11,1.63-2.21.41A4,4,0,0,1,141.65,229.35Z" style="fill:#263238"></path><path d="M187.69,211.31a16.93,16.93,0,0,0-2.56-3,11.48,11.48,0,0,0-3.64-2.1c-.75-.27-1.57-.38-2.46-.66a3,3,0,0,1-1.25-.73,2.63,2.63,0,0,1-.66-1.36c-.18-1-.07-1.88-.21-2.74a11.33,11.33,0,0,0-.58-2.41,8.1,8.1,0,0,0-1-2,2.76,2.76,0,0,0-1.5-1.08,2.26,2.26,0,0,0-1.51,0,1.5,1.5,0,0,0-.79.8c-.26.61-.27,1-.33,1s0-.1,0-.28a2.47,2.47,0,0,1,.16-.8,1.66,1.66,0,0,1,.86-1,2.55,2.55,0,0,1,1.73,0,3.16,3.16,0,0,1,1.73,1.18,8.62,8.62,0,0,1,1.09,2.09,11.08,11.08,0,0,1,.64,2.52c.14.89.05,1.85.21,2.7a2.09,2.09,0,0,0,.52,1.1,2.51,2.51,0,0,0,1,.61c.79.26,1.67.39,2.45.69a11.18,11.18,0,0,1,3.72,2.27,10.24,10.24,0,0,1,1.86,2.27A3.24,3.24,0,0,1,187.69,211.31Z" style="fill:#ff9a6c"></path><path d="M175.69,183.46c.06,0-.45.67-1.11,1.76a20.36,20.36,0,0,0-2,4.55c-1.15,3.74-1.22,7-1.4,6.95a6.52,6.52,0,0,1,0-2.1,23.12,23.12,0,0,1,.93-5,16.31,16.31,0,0,1,2.2-4.6A5.48,5.48,0,0,1,175.69,183.46Z" style="fill:#ff9a6c"></path><path d="M178.47,195.3c.14.06-2.54,6.57-6,14.56s-6.33,14.4-6.46,14.35,2.54-6.58,6-14.56S178.34,195.24,178.47,195.3Z" style="fill:#263238"></path><path d="M180.51,197c.13,0-1.34,5.78-3.29,12.82s-3.65,12.71-3.79,12.67,1.33-5.77,3.29-12.81S180.37,197,180.51,197Z" style="fill:#263238"></path><path d="M212.69,202.9a87,87,0,0,1-9.67-.71A88,88,0,0,1,193.4,201a91.79,91.79,0,0,1,9.67.72A92.25,92.25,0,0,1,212.69,202.9Z" style="fill:#ff9a6c"></path><path d="M209.16,193.52a6.76,6.76,0,0,1-4.22,3.56,21.59,21.59,0,0,1,2.16-1.73C208.25,194.39,209,193.43,209.16,193.52Z" style="fill:#ff9a6c"></path><path d="M220,239.85l.24,0,.7.1,2.72.46,10.26,1.82.14,0,0,.14c-1.33,12.2-3.78,31.76-8,53.52-1.8,9.26-3.79,18-5.78,25.94s-3.63,15.12-6,20.86c-1.18,2.84-2.59,5.4-4.5,7a17.64,17.64,0,0,1-5.29,3.41,14.92,14.92,0,0,1-3.85,1,9.62,9.62,0,0,1-1.39.09,2.49,2.49,0,0,1,.35-.05c.23,0,.58-.07,1-.14a16.56,16.56,0,0,0,3.79-1.11,17.54,17.54,0,0,0,5.17-3.45,17.83,17.83,0,0,0,4.35-6.93c2.29-5.72,4-12.87,5.85-20.84,2-7.92,3.94-16.67,5.74-25.92,4.25-21.74,6.79-41.28,8.24-53.45l.13.17-10.23-2-2.7-.54-.7-.15A1,1,0,0,1,220,239.85Z" style="fill:#263238"></path></g><g id="freepik--speech-bubble--inject-253"><path d="M344.33,141l3.9-11.77a39.59,39.59,0,1,1,9.87,10.2h0Z" style="fill:#fff"></path><path d="M344.33,141l.91-.12,2.65-.33,10.21-1.23-.08.2,0,0a.12.12,0,0,1,0-.17.11.11,0,0,1,.15,0,39.75,39.75,0,0,0,18.16,7,39.33,39.33,0,0,0,6.1.25,44.86,44.86,0,0,0,6.46-.8A39.27,39.27,0,0,0,394,70.21a40.09,40.09,0,0,0-18-1.87,38.87,38.87,0,0,0-16,5.82,39.37,39.37,0,0,0-17.15,24q-.18.84-.36,1.65a11.61,11.61,0,0,0-.29,1.63c-.13,1.09-.25,2.17-.37,3.22a54.06,54.06,0,0,0,.07,6.13,39.27,39.27,0,0,0,6.38,18.29.14.14,0,0,1,0,.11l-3,8.69c-.34,1-.59,1.73-.77,2.26l-.28.78s.07-.25.23-.75.4-1.26.71-2.24l2.85-8.82,0,.1a39.25,39.25,0,0,1-6.56-18.38,57.42,57.42,0,0,1-.1-6.19c.12-1.07.25-2.15.37-3.25a10.47,10.47,0,0,1,.28-1.66l.36-1.66a39.79,39.79,0,0,1,17.29-24.37A39.16,39.16,0,0,1,376,67.81a40.63,40.63,0,0,1,18.23,1.88,39.59,39.59,0,0,1,16.06,10.48A18.07,18.07,0,0,1,411.84,82l1.5,1.87,1.31,2a15.67,15.67,0,0,1,1.23,2L417,90c.39.69.62,1.45.94,2.16s.61,1.44.85,2.18.45,1.49.67,2.23a39.34,39.34,0,0,1,.81,17.94A39.72,39.72,0,0,1,389,146.19a44.44,44.44,0,0,1-6.54.78,38.64,38.64,0,0,1-6.15-.28,39.55,39.55,0,0,1-18.26-7.2l.16-.18h0a.13.13,0,0,1,0,.18l-.06,0-10.32,1.08-2.62.27Z" style="fill:#263238"></path><polygon points="362.87 108.32 368.39 102.22 380.1 111.62 397.5 91.64 403.19 97.18 379.84 122.87 362.87 108.32" style="fill:#FF725E"></polygon></g></svg>
