<!DOCTYPE svg PUBLIC "-//W3C//DTD SVG 1.1//EN" "http://www.w3.org/Graphics/SVG/1.1/DTD/svg11.dtd">
<!-- Uploaded to: SVG Repo, www.svgrepo.com, Transformed by: SVG Repo Mixer Tools -->
<svg version="1.1" id="Layer_1" xmlns="http://www.w3.org/2000/svg" xmlns:xlink="http://www.w3.org/1999/xlink" viewBox="0 0 512.00 512.00" xml:space="preserve" width="256px" height="256px" fill="#000000" stroke="#000000" stroke-width="0.00512">
<g id="SVGRepo_bgCarrier" stroke-width="0" transform="translate(256,256), scale(0)"/>
<g id="SVGRepo_tracerCarrier" stroke-linecap="round" stroke-linejoin="round" stroke="#CCCCCC" stroke-width="13.312000000000001"/>
<g id="SVGRepo_iconCarrier"> <circle style="fill:#0575A5;" cx="256" cy="256" r="256"/> <path style="fill:#025E90;" d="M390.986,198.587c-1.434-1.464-3.331-2.194-5.233-2.194h-22.848l-35.205-35.21l-35.215,35.21h-44.314 l-51.715-51.712l-1.682-1.682c-0.108-0.113-0.218-0.184-0.328-0.294c-3.658-3.144-8.343-4.864-13.169-4.864h-37.883 c-2.194-4.055-6.513-6.802-11.448-6.802c-7.245,0-13.094,5.85-13.094,13.092c0,0.86,0.1,1.687,0.256,2.493 c0.046,0.256,0.138,0.492,0.197,0.735c0.138,0.543,0.292,1.078,0.494,1.59c0.115,0.292,0.261,0.563,0.394,0.837 c0.212,0.433,0.428,0.852,0.681,1.254c0.197,0.305,0.407,0.594,0.625,0.886c0.123,0.164,0.225,0.356,0.356,0.512 c0,0.036,0.036,0.036,0.036,0.074l0.509,0.504c0.205,0.218,0.415,0.428,0.632,0.63l0.504,0.509c0.036,0,0.072,0.036,0.072,0.036 l77.092,77.128l0.02,0.013l6.474,40.346l-0.02-0.02l6.582,40.852l-1.644,0.366c-4.5,1.024-8.558,3.548-11.448,7.13 c-2.885,3.579-4.46,8.082-4.46,12.69v0.548c0,5.414,2.122,10.501,5.921,14.336l8.302,8.3l0.023,0.028 c-0.425,1.618-0.678,3.31-0.678,5.059c0,5.268,2.01,10.058,5.373,13.604l1.024,1.024l122.624,122.644 c83.131-28.411,146.944-98.353,166.725-185.111L390.986,198.587z"/> <g> <path style="fill:#FF8E31;" d="M145.014,144.115c0,7.204-5.857,13.064-13.074,13.064c-7.224,0-13.079-5.857-13.079-13.064 c0-7.227,5.857-13.076,13.079-13.076C139.156,131.039,145.014,136.888,145.014,144.115z"/> <rect x="243.054" y="175.179" transform="matrix(0.9469 -0.3215 0.3215 0.9469 -60.487 107.9977)" style="fill:#FF8E31;" width="107.401" height="123.928"/> </g> <g> <path style="fill:#FFFFFF;" d="M386.875,353.516H216.466c-5.399,0-10.493-2.104-14.331-5.939 c-3.822-3.835-5.934-8.919-5.934-14.336v-0.54c0-4.6,1.592-9.119,4.467-12.713c2.89-3.581,6.956-6.103,11.461-7.099l142.779-31.409 c3.389-0.745,6.733,1.398,7.478,4.767c0.742,3.379-1.393,6.73-4.785,7.48L214.822,325.14c-1.743,0.374-3.254,1.313-4.375,2.706 c-1.116,1.39-1.708,3.075-1.708,4.854v0.54c0,2.066,0.806,4.009,2.26,5.471c1.462,1.454,3.412,2.271,5.463,2.271h170.409 c3.464,0,6.264,2.803,6.264,6.269C393.139,350.707,390.339,353.516,386.875,353.516z"/> <path style="fill:#FFFFFF;" d="M220.9,323.648c-3.021,0-5.688-2.191-6.177-5.281L188.946,156.9 c-0.21-1.285-0.824-3.146-2.621-4.672c-1.805-1.531-3.715-1.853-5.028-1.853H131.94c-3.466,0-6.275-2.803-6.275-6.264 c0-3.459,2.808-6.28,6.275-6.28h49.354c4.818,0,9.495,1.736,13.161,4.859c3.666,3.118,6.118,7.473,6.868,12.234l25.774,161.459 c0.54,3.42-1.792,6.638-5.204,7.186C221.555,323.625,221.235,323.648,220.9,323.648z"/> </g> <path style="fill:#34495E;" d="M249.756,360.96c0,11.054-8.96,20.001-19.991,20.001c-11.036,0-19.999-8.947-19.999-20.001 c0-11.046,8.963-19.981,19.999-19.981C240.796,340.979,249.756,349.914,249.756,360.96z"/> <path style="fill:#FFFFFF;" d="M239.749,360.96c0,5.527-4.467,9.994-9.984,9.994c-5.53,0-9.989-4.467-9.989-9.994 c0-5.512,4.46-9.987,9.989-9.987C235.282,350.973,239.749,355.448,239.749,360.96z"/> <path style="fill:#34495E;" d="M393.139,360.96c0,11.054-8.957,20.001-19.996,20.001c-11.034,0-19.988-8.947-19.988-20.001 c0-11.046,8.955-19.981,19.988-19.981C384.182,340.979,393.139,349.914,393.139,360.96z"/> <g> <path style="fill:#FFFFFF;" d="M383.142,360.96c0,5.527-4.483,9.994-9.997,9.994s-9.992-4.467-9.992-9.994 c0-5.512,4.477-9.987,9.992-9.987S383.142,355.448,383.142,360.96z"/> <path style="fill:#FFFFFF;" d="M390.979,198.577c-1.434-1.446-3.323-2.168-5.217-2.168H195.11l20.662,128.515v0.008l171.576-37.75 c1.587-0.346,3.054-1.216,4.16-2.578c1.096-1.37,1.633-3,1.633-4.623v-76.193C393.139,201.902,392.417,200.013,390.979,198.577z M230.29,309.297c-0.253,0.044-0.502,0.056-0.748,0.056c-2.25,0-4.237-1.631-4.605-3.927l-14.705-91.466 c-0.407-2.547,1.321-4.946,3.871-5.35c2.529-0.407,4.938,1.324,5.356,3.868l14.697,91.469 C234.565,306.496,232.837,308.89,230.29,309.297z M254.669,303.926c-0.22,0.036-0.445,0.051-0.663,0.051 c-2.289,0-4.288-1.679-4.621-4.009l-12.247-86.088c-0.366-2.55,1.403-4.915,3.953-5.279c2.578-0.374,4.923,1.411,5.289,3.965 l12.255,86.085C259,301.199,257.226,303.567,254.669,303.926z M279.035,298.56c-0.192,0.02-0.376,0.036-0.568,0.036 c-2.324,0-4.339-1.743-4.623-4.114l-9.81-80.696c-0.312-2.555,1.518-4.89,4.07-5.202c2.568-0.266,4.884,1.513,5.207,4.073 l9.797,80.707C283.418,295.921,281.6,298.245,279.035,298.56z M303.393,293.187c-0.161,0.013-0.31,0.02-0.466,0.02 c-2.373,0-4.406-1.805-4.639-4.219l-7.357-75.315c-0.253-2.563,1.623-4.849,4.198-5.102c2.604-0.22,4.854,1.628,5.102,4.196 l7.36,75.32C307.83,290.652,305.956,292.936,303.393,293.187z M327.729,287.823c-0.113,0.005-0.225,0.013-0.338,0.013 c-2.429,0-4.472-1.882-4.649-4.347l-4.895-69.942c-0.182-2.573,1.751-4.803,4.329-4.987c2.604-0.133,4.805,1.761,4.989,4.334 l4.895,69.942C332.242,285.412,330.296,287.639,327.729,287.823z M352.049,282.442c-0.069,0-0.123,0-0.182,0 c-2.501,0-4.567-1.974-4.669-4.488l-2.45-64.555c-0.092-2.578,1.912-4.746,4.495-4.846c2.606-0.159,4.741,1.91,4.846,4.488 l2.445,64.553C356.636,280.179,354.621,282.342,352.049,282.442z M381.005,272.392c0,2.583-2.092,4.669-4.669,4.669 c-2.583,0-4.675-2.086-4.675-4.669v-59.167c0-2.586,2.092-4.669,4.675-4.669c2.578,0,4.669,2.084,4.669,4.669V272.392z"/> </g> </g>
</svg>